<svg width="48" height="48" viewBox="0 0 48 48" fill="none" xmlns="http://www.w3.org/2000/svg">
<path d="M40.032 23.448C38.5093 24.9753 36.5675 26.0164 34.4527 26.4394C32.3378 26.8623 30.145 26.6482 28.152 25.824L15.168 41.472C12.792 43.848 8.95201 43.848 6.57601 41.472C4.20001 39.096 4.20001 35.256 6.57601 32.904L22.224 19.896C20.592 15.936 21.384 11.232 24.6 8.01599C27.672 4.94399 32.088 4.128 35.928 5.472L28.992 12.408L35.76 19.176L42.624 12.288C43.896 16.08 43.056 20.424 40.032 23.448ZM9.14401 38.904C10.104 39.84 11.64 39.84 12.576 38.904C13.536 37.944 13.536 36.408 12.576 35.472C11.64 34.512 10.104 34.512 9.14401 35.472C8.69402 35.9298 8.44187 36.5461 8.44187 37.188C8.44187 37.8299 8.69402 38.4462 9.14401 38.904Z" fill="#496677"/>
</svg>
