<svg width="49" height="49" viewBox="0 0 49 49" fill="none" xmlns="http://www.w3.org/2000/svg">
<path d="M38.552 11.0931C35.892 9.85311 33.012 8.95311 30.012 8.43311C29.9592 8.43386 29.9089 8.45542 29.872 8.49311C29.512 9.15311 29.092 10.0131 28.812 10.6731C25.6299 10.1934 22.394 10.1934 19.212 10.6731C18.932 9.99311 18.512 9.15311 18.132 8.49311C18.112 8.45311 18.052 8.43311 17.992 8.43311C14.992 8.95311 12.132 9.85311 9.45195 11.0931C9.43195 11.0931 9.41195 11.1131 9.39195 11.1331C3.95195 19.2731 2.45195 27.1931 3.19195 35.0331C3.19195 35.0731 3.21195 35.1131 3.25195 35.1331C6.85195 37.7731 10.312 39.3731 13.732 40.4331C13.792 40.4531 13.852 40.4331 13.872 40.3931C14.672 39.2931 15.392 38.1331 16.012 36.9131C16.052 36.8331 16.012 36.7531 15.932 36.7331C14.792 36.2931 13.712 35.7731 12.652 35.1731C12.572 35.1331 12.572 35.0131 12.632 34.9531C12.852 34.7931 13.072 34.6131 13.292 34.4531C13.332 34.4131 13.392 34.4131 13.432 34.4331C20.312 37.5731 27.732 37.5731 34.532 34.4331C34.572 34.4131 34.632 34.4131 34.672 34.4531C34.892 34.6331 35.112 34.7931 35.332 34.9731C35.412 35.0331 35.412 35.1531 35.312 35.1931C34.272 35.8131 33.172 36.3131 32.032 36.7531C31.952 36.7731 31.932 36.8731 31.952 36.9331C32.592 38.1531 33.312 39.3131 34.092 40.4131C34.152 40.4331 34.212 40.4531 34.272 40.4331C37.712 39.3731 41.1719 37.7731 44.7719 35.1331C44.8119 35.1131 44.832 35.0731 44.832 35.0331C45.712 25.9731 43.372 18.1131 38.632 11.1331C38.612 11.1131 38.592 11.0931 38.552 11.0931ZM17.052 30.2531C14.992 30.2531 13.272 28.3531 13.272 26.0131C13.272 23.6731 14.952 21.7731 17.052 21.7731C19.172 21.7731 20.852 23.6931 20.832 26.0131C20.832 28.3531 19.152 30.2531 17.052 30.2531ZM30.992 30.2531C28.932 30.2531 27.212 28.3531 27.212 26.0131C27.212 23.6731 28.892 21.7731 30.992 21.7731C33.112 21.7731 34.792 23.6931 34.772 26.0131C34.772 28.3531 33.112 30.2531 30.992 30.2531Z" fill="#D9D9D9"/>
</svg>
