<svg width="49" height="49" viewBox="0 0 49 49" fill="none" xmlns="http://www.w3.org/2000/svg">
<path d="M6.01172 22.4331C6.01172 14.8911 6.01172 11.1191 8.35572 8.77711C10.6997 6.43511 14.4697 6.43311 22.0117 6.43311H26.0117C33.5537 6.43311 37.3257 6.43311 39.6677 8.77711C42.0097 11.1211 42.0117 14.8911 42.0117 22.4331V26.4331C42.0117 33.9751 42.0117 37.7471 39.6677 40.0891C37.3237 42.4311 33.5537 42.4331 26.0117 42.4331H22.0117C14.4697 42.4331 10.6977 42.4331 8.35572 40.0891C6.01372 37.7451 6.01172 33.9751 6.01172 26.4331V22.4331Z" stroke="#D9D9D9" stroke-width="4"/>
<path d="M33.0117 18.4331C34.6686 18.4331 36.0117 17.09 36.0117 15.4331C36.0117 13.7763 34.6686 12.4331 33.0117 12.4331C31.3549 12.4331 30.0117 13.7763 30.0117 15.4331C30.0117 17.09 31.3549 18.4331 33.0117 18.4331Z" fill="#D9D9D9"/>
<path d="M24.0117 30.4331C27.3254 30.4331 30.0117 27.7468 30.0117 24.4331C30.0117 21.1194 27.3254 18.4331 24.0117 18.4331C20.698 18.4331 18.0117 21.1194 18.0117 24.4331C18.0117 27.7468 20.698 30.4331 24.0117 30.4331Z" stroke="#D9D9D9" stroke-width="4"/>
</svg>
