<svg width="48" height="48" viewBox="0 0 48 48" fill="none" xmlns="http://www.w3.org/2000/svg">
<path d="M24 40C19.3667 38.95 15.5413 36.5572 12.524 32.8216C9.50667 29.086 7.99867 24.9388 8 20.38V9.4L24 4L40 9.4V20.38C40 24.94 38.492 29.0878 35.476 32.8234C32.46 36.559 28.6347 38.9512 24 40ZM24 36.22C27.4667 35.23 30.3333 33.25 32.6 30.28C34.8667 27.31 36 24.01 36 20.38V11.875L24 7.825L12 11.875V20.38C12 24.01 13.1333 27.31 15.4 30.28C17.6667 33.25 20.5333 35.23 24 36.22Z" fill="white"/>
</svg>
