<svg width="48" height="48" viewBox="0 0 48 48" fill="none" xmlns="http://www.w3.org/2000/svg">
<path d="M36 37C35.2044 37 34.4413 36.6839 33.8787 36.1213C33.3161 35.5587 33 34.7956 33 34C33 33.2044 33.3161 32.4413 33.8787 31.8787C34.4413 31.3161 35.2044 31 36 31C36.7956 31 37.5587 31.3161 38.1213 31.8787C38.6839 32.4413 39 33.2044 39 34C39 34.7956 38.6839 35.5587 38.1213 36.1213C37.5587 36.6839 36.7956 37 36 37ZM39 19L42.92 24H34V19M12 37C11.2044 37 10.4413 36.6839 9.87868 36.1213C9.31607 35.5587 9 34.7956 9 34C9 33.2044 9.31607 32.4413 9.87868 31.8787C10.4413 31.3161 11.2044 31 12 31C12.7956 31 13.5587 31.3161 14.1213 31.8787C14.6839 32.4413 15 33.2044 15 34C15 34.7956 14.6839 35.5587 14.1213 36.1213C13.5587 36.6839 12.7956 37 12 37ZM40 16H34V8H6C3.78 8 2 9.78 2 12V34H6C6 35.5913 6.63214 37.1174 7.75736 38.2426C8.88258 39.3679 10.4087 40 12 40C13.5913 40 15.1174 39.3679 16.2426 38.2426C17.3679 37.1174 18 35.5913 18 34H30C30 35.5913 30.6321 37.1174 31.7574 38.2426C32.8826 39.3679 34.4087 40 36 40C37.5913 40 39.1174 39.3679 40.2426 38.2426C41.3679 37.1174 42 35.5913 42 34H46V24L40 16Z" fill="white"/>
</svg>
