<svg width="49" height="48" viewBox="0 0 49 48" fill="none" xmlns="http://www.w3.org/2000/svg">
<path d="M24.5 8C26.6217 8 28.6566 8.84285 30.1569 10.3431C31.6571 11.8434 32.5 13.8783 32.5 16C32.5 18.1217 31.6571 20.1566 30.1569 21.6569C28.6566 23.1571 26.6217 24 24.5 24C22.3783 24 20.3434 23.1571 18.8431 21.6569C17.3429 20.1566 16.5 18.1217 16.5 16C16.5 13.8783 17.3429 11.8434 18.8431 10.3431C20.3434 8.84285 22.3783 8 24.5 8ZM24.5 28C33.34 28 40.5 31.58 40.5 36V40H8.5V36C8.5 31.58 15.66 28 24.5 28Z" fill="#496677"/>
</svg>
