<svg width="48" height="48" viewBox="0 0 48 48" fill="none" xmlns="http://www.w3.org/2000/svg">
<path d="M41.42 14.0801C40.74 14.7601 40.08 15.4201 40.06 16.0801C40 16.7201 40.68 17.3801 41.32 18.0001C42.28 19.0001 43.22 19.9001 43.18 20.8801C43.14 21.8601 42.12 22.8801 41.1 23.8801L32.84 32.1601L30 29.3201L38.5 20.8401L36.58 18.9201L33.74 21.7401L26.24 14.2401L33.92 6.58012C34.7 5.80012 36 5.80012 36.74 6.58012L41.42 11.2601C42.2 12.0001 42.2 13.3001 41.42 14.0801ZM6 34.5001L25.12 15.3601L32.62 22.8601L13.5 42.0001H6V34.5001Z" fill="white"/>
</svg>
