<svg width="48" height="48" viewBox="0 0 48 48" fill="none" xmlns="http://www.w3.org/2000/svg">
<path d="M34 36C35.0609 36 36.0783 36.4214 36.8284 37.1716C37.5786 37.9217 38 38.9391 38 40C38 41.0609 37.5786 42.0783 36.8284 42.8284C36.0783 43.5786 35.0609 44 34 44C32.9391 44 31.9217 43.5786 31.1716 42.8284C30.4214 42.0783 30 41.0609 30 40C30 37.78 31.78 36 34 36ZM2 4H8.54L10.42 8H40C40.5304 8 41.0391 8.21071 41.4142 8.58579C41.7893 8.96086 42 9.46957 42 10C42 10.34 41.9 10.68 41.76 11L34.6 23.94C33.92 25.16 32.6 26 31.1 26H16.2L14.4 29.26L14.34 29.5C14.34 29.6326 14.3927 29.7598 14.4864 29.8536C14.5802 29.9473 14.7074 30 14.84 30H38V34H14C12.9391 34 11.9217 33.5786 11.1716 32.8284C10.4214 32.0783 10 31.0609 10 30C10 29.3 10.18 28.64 10.48 28.08L13.2 23.18L6 8H2V4ZM14 36C15.0609 36 16.0783 36.4214 16.8284 37.1716C17.5786 37.9217 18 38.9391 18 40C18 41.0609 17.5786 42.0783 16.8284 42.8284C16.0783 43.5786 15.0609 44 14 44C12.9391 44 11.9217 43.5786 11.1716 42.8284C10.4214 42.0783 10 41.0609 10 40C10 37.78 11.78 36 14 36ZM32 22L37.56 12H12.28L17 22H32Z" fill="black"/>
</svg>
