<svg width="25" height="25" viewBox="0 0 25 25" fill="none" xmlns="http://www.w3.org/2000/svg">
<path d="M10.4453 3.47803C12.1692 3.47803 13.8225 4.16285 15.0415 5.38183C16.2605 6.60082 16.9453 8.25412 16.9453 9.97803C16.9453 11.588 16.3553 13.068 15.3853 14.208L15.6553 14.478H16.4453L21.4453 19.478L19.9453 20.978L14.9453 15.978V15.188L14.6753 14.918C13.4957 15.9245 11.996 16.4776 10.4453 16.478C8.72141 16.478 7.0681 15.7932 5.84912 14.5742C4.63013 13.3552 3.94531 11.7019 3.94531 9.97803C3.94531 8.25412 4.63013 6.60082 5.84912 5.38183C7.0681 4.16285 8.72141 3.47803 10.4453 3.47803ZM10.4453 5.47803C7.94531 5.47803 5.94531 7.47803 5.94531 9.97803C5.94531 12.478 7.94531 14.478 10.4453 14.478C12.9453 14.478 14.9453 12.478 14.9453 9.97803C14.9453 7.47803 12.9453 5.47803 10.4453 5.47803Z" fill="black"/>
</svg>
