<svg width="48" height="48" viewBox="0 0 48 48" fill="none" xmlns="http://www.w3.org/2000/svg">
<path d="M16.34 4.5H34.8C36.134 4.5 37.472 4.718 38.406 5.686C39.326 6.642 39.5 7.966 39.5 9.2V32.8C39.5 33.886 39.356 34.954 38.8 35.818C38.4792 36.3164 38.0302 36.7191 37.5 36.984V38.8C37.5 40.132 37.284 41.47 36.318 42.404C35.362 43.328 34.038 43.5 32.804 43.5H11.5C10.7043 43.5 9.94128 43.1839 9.37867 42.6213C8.81606 42.0587 8.49999 41.2957 8.49999 40.5V12.034C8.49399 11.038 8.48799 9.794 8.75999 8.66C9.09399 7.276 9.86399 5.934 11.502 5.1C12.178 4.756 12.89 4.62 13.65 4.56C14.38 4.5 15.27 4.5 16.34 4.5ZM11.5 40.5H32.804C33.898 40.5 34.17 40.308 34.232 40.248C34.282 40.2 34.5 39.938 34.5 38.8V37.5H14.5C13.7043 37.5 12.9413 37.8161 12.3787 38.3787C11.8161 38.9413 11.5 39.7043 11.5 40.5Z" fill="white"/>
</svg>
